<svg xmlns="http://www.w3.org/2000/svg">
  <symbol id="flag" viewBox="0 0 39 47">
    <path d="M2.61151 -0.000460072C1.16884 -0.000460072 -0.000488281 1.16887 -0.000488281 2.61154C-0.000488281 2.98087 0.0781784 3.33154 0.216845 3.64887C0.455512 4.19287 0.834178 5.31421 0.834178 6.29554V44.8169C0.834178 45.7982 1.62884 46.5982 2.61151 46.5982C3.59284 46.5982 4.39284 45.7982 4.39284 44.8169V6.29554C4.39284 5.31421 4.77018 4.19287 5.00484 3.64887C5.14484 3.33154 5.22218 2.98087 5.22218 2.61154C5.22618 1.17287 4.05418 -0.000460072 2.61151 -0.000460072Z"/>
    <path d="M31.5997 18.2006C31.2397 18.6912 31.2437 19.3512 31.6104 19.7979C33.5637 22.1659 35.5744 24.1086 37.473 25.6579C39.1464 27.0246 36.965 28.0206 36.4757 28.2286C26.5157 32.4832 16.5637 23.5819 6.61035 26.2926V5.27923C16.5797 2.56723 26.5477 11.5072 36.517 7.1979C37.0037 6.9899 37.4477 7.04057 37.6624 7.36857C37.8757 7.6939 37.8224 8.2539 37.525 8.8019C35.5504 12.4232 33.5744 15.4926 31.5997 18.2006Z"/>
  </symbol>

  <symbol id="human" viewBox="0 0 16 17">
    <path d="M15.11 12.71C15.0552 12.432 14.9363 12.1706 14.7627 11.9466C14.5891 11.7227 14.3656 11.5423 14.11 11.42L11.3 10.13L10.14 9.25C10.1121 9.10852 10.0464 8.97723 9.95 8.87V8.87V7.44C10.2333 7.02505 10.4745 6.58286 10.67 6.12C10.8925 5.97534 11.078 5.78061 11.2117 5.5514C11.3454 5.32218 11.4236 5.06485 11.44 4.8C11.44 4.11 11.23 3.95 11.02 3.94C11 3.47 11.24 0 7.71 0C3.92 0 4.46 4 4.46 4C4.26 4 4.04 4.17 4.08 4.8C4.09973 5.0629 4.17827 5.318 4.30981 5.54647C4.44135 5.77495 4.62255 5.97095 4.84 6.12C5.04406 6.57867 5.28484 7.02011 5.56 7.44V8.89C5.46592 8.99107 5.40035 9.1153 5.37 9.25L4.21 10.12V10.17L1.5 11.42C1.24393 11.5417 1.02003 11.7218 0.846336 11.9459C0.67264 12.1699 0.554009 12.4317 0.5 12.71L0 15.15C0 15.15 0.46 16.31 7.8 16.31C15.14 16.31 15.59 15.15 15.59 15.15L15.11 12.71Z"/>
  </symbol>

  <symbol id="left-line" viewBox="0 0 32 211">
    <path d="M6 6C6.00049 3.23884 8.23876 1.00061 10.9999 1.00016L12 1" />
    <path d="M12 1H32" />
    <path d="M0 188H12" />
    <path d="M9 209H14" />
    <path d="M6 161H19" />
    <path d="M6 182V194" />
    <path d="M6 197V206" />
    <path d="M6 6V176" />
    <path d="M5.98781 205.007L5.99064 206.012C5.9953 207.665 7.33476 209.004 8.98781 209.007V209.007" />
  </symbol>
</svg>